<svg width="47" height="47" viewBox="0 0 47 47" fill="none" xmlns="http://www.w3.org/2000/svg">
<path d="M1.00003 23.5C1.00003 35.9264 11.0736 46 23.5 46C35.9264 46 46 35.9264 46 23.5C46 11.0736 35.9264 1.00003 23.5 1.00003C11.0736 1.00003 1.00003 11.0736 1.00003 23.5Z" stroke="#EAB472" stroke-width="1.2"/>
<path d="M23.0754 18.1436L23.176 18.0466L23.0754 17.9496L22.4429 17.3396L22.3494 17.2495L22.2559 17.3396L15.9965 23.3756L15.8959 23.4726L15.9965 23.5696L22.3112 29.6594L22.4047 29.7495L22.4983 29.6594L23.1308 29.0494L23.2314 28.9524L23.1308 28.8554L18.1408 24.0432L29.563 24.0432L29.6978 24.0432L29.6978 23.9085L29.6978 23.0368L29.6978 22.9021L29.563 22.9021L18.1408 22.9021L23.0754 18.1436Z" fill="#EAB472"/>
</svg>
