<svg width="46" height="45" viewBox="0 0 46 45" fill="none" xmlns="http://www.w3.org/2000/svg">
<path d="M45.9131 22.5002C45.9131 10.0738 35.8395 0.000244141 23.4131 0.000244141C10.9867 0.000244141 0.913086 10.0738 0.913086 22.5002C0.913086 34.9266 10.9867 45.0002 23.4131 45.0002C35.8395 45.0002 45.9131 34.9266 45.9131 22.5002Z" fill="#EAB472"/>
<path d="M23.8377 27.8566L23.7371 27.9536L23.8377 28.0506L24.4702 28.6606L24.5637 28.7508L24.6572 28.6606L30.9166 22.6246L31.0172 22.5276L30.9166 22.4306L24.6019 16.3409L24.5084 16.2507L24.4148 16.3409L23.7823 16.9509L23.6817 17.0479L23.7823 17.1449L28.7722 21.957H17.3501H17.2153V22.0917V22.9634V23.0981H17.3501H28.7722L23.8377 27.8566Z" fill="#3C5851"/>
</svg>
