<svg width="24" height="24" viewBox="0 0 24 24" fill="none" xmlns="http://www.w3.org/2000/svg">
<path d="M12 1C5.92487 1 0.999999 5.92487 1 12C1 18.0751 5.92487 23 12 23C18.0751 23 23 18.0751 23 12C23 5.92487 18.0751 1 12 1Z" stroke="#EAB472" stroke-width="1.2"/>
<path d="M11.5203 14.6178L11.4711 14.6653L11.5203 14.7127L11.8296 15.0109L11.8753 15.055L11.921 15.0109L14.9811 12.06L15.0303 12.0126L14.9811 11.9651L11.8939 8.98791L11.8482 8.94385L11.8025 8.98791L11.4932 9.28613L11.4441 9.33356L11.4932 9.38098L13.9328 11.7336H8.34858H8.28271V11.7994V12.2256V12.2915H8.34858H13.9328L11.5203 14.6178Z" fill="#EAB472"/>
</svg>
