<svg width="41" height="40" viewBox="0 0 41 40" fill="none" xmlns="http://www.w3.org/2000/svg">
<path d="M29.0323 21.9756C28.8807 21.4525 28.6086 20.9693 28.2365 20.5624C27.885 20.1728 27.4627 19.8487 26.9905 19.6062C26.6042 19.4208 26.2049 19.2618 25.7957 19.1304C25.4476 19.0144 25.0903 18.9261 24.7273 18.8666C23.8391 18.7276 22.615 18.5698 21.0623 18.3955C19.5097 18.2212 18.5095 18.1035 18.0033 18.0352C17.6029 17.9898 17.2126 17.8824 16.8474 17.7172C16.6757 17.6477 16.5189 17.5479 16.385 17.4228C16.3098 17.2873 16.2849 17.131 16.3144 16.98C16.3528 16.82 16.4372 16.6738 16.5578 16.5584C16.9798 16.1884 17.4925 15.929 18.0471 15.8046C18.8448 15.592 19.6709 15.4968 20.4978 15.522C21.3126 15.5231 22.1236 15.6292 22.9094 15.8376C23.5737 16.0064 24.2028 16.2853 24.7687 16.662C25.1791 16.9418 25.5337 17.2913 25.8151 17.6936L26.1364 18.1647L29.0299 16.2333L28.6575 15.774C27.8273 14.7713 26.7434 13.9932 25.5109 13.5152C24.1245 12.9436 22.6372 12.6357 21.1305 12.6084C17.064 12.526 14.3895 13.4799 13.18 15.4678C12.7584 16.1362 12.5866 16.9244 12.6933 17.7007C12.8147 18.4385 13.1914 19.1144 13.7616 19.6179C14.5029 20.2491 15.3997 20.6847 16.3656 20.8828C17.8268 21.1917 19.307 21.4096 20.7971 21.5352C21.8212 21.624 22.8399 21.7647 23.8488 21.9568C24.3121 22.0157 24.7498 22.1966 25.1143 22.4797C25.2281 22.5808 25.3192 22.7034 25.3819 22.8401C25.4308 22.9539 25.45 23.0777 25.4379 23.2004C25.4106 23.3254 25.3463 23.4399 25.253 23.5302C25.0668 23.7241 24.8458 23.8837 24.6008 24.0012C23.805 24.3593 22.6928 24.5288 21.2887 24.4723C20.0429 24.4614 18.8082 24.2439 17.6383 23.8293C17.2105 23.6588 16.8027 23.4448 16.4215 23.191C16.1588 23.036 15.9097 22.8604 15.6768 22.6658L15.4165 22.402L15.0879 22.0463L12.2188 24.0672L12.6617 24.6513C12.8376 24.8471 13.0332 25.0254 13.2457 25.1836C13.5615 25.4433 13.8922 25.6855 14.2362 25.9091C15.2162 26.4957 16.2967 26.908 17.4266 27.1268C18.6779 27.3977 19.9554 27.539 21.2376 27.5484H21.3349C22.5276 27.5523 23.7172 27.4315 24.8831 27.188C25.89 27.0125 26.8398 26.609 27.6549 26.0104C28.2679 25.5261 28.7262 24.8833 28.9763 24.1567C29.2197 23.4587 29.2392 22.7058 29.0323 21.9968V21.9756Z" fill="#3C5851"/>
<path d="M20.442 39.5698C15.0222 39.5642 9.8261 37.4779 5.99373 33.7688C2.16136 30.0596 0.0057976 25.0305 0 19.7849C0.0057976 14.5393 2.16136 9.51024 5.99373 5.80106C9.8261 2.09189 15.0222 0.00561123 20.442 0C25.8618 0.00561123 31.0579 2.09189 34.8903 5.80106C38.7227 9.51024 40.8782 14.5393 40.884 19.7849C40.8782 25.0305 38.7227 30.0596 34.8903 33.7688C31.0579 37.4779 25.8618 39.5642 20.442 39.5698ZM20.442 2.82642C15.7965 2.8314 11.3428 4.6197 8.05798 7.79895C4.77313 10.9782 2.92544 15.2888 2.92029 19.7849C2.92544 24.2811 4.77313 28.5916 8.05798 31.7709C11.3428 34.9501 15.7965 36.7384 20.442 36.7434C25.0875 36.7384 29.5412 34.9501 32.8261 31.7709C36.1109 28.5916 37.9586 24.2811 37.9638 19.7849C37.9586 15.2888 36.1109 10.9782 32.8261 7.79895C29.5412 4.6197 25.0875 2.8314 20.442 2.82642Z" fill="#3C5851"/>
</svg>
