<svg width="24" height="24" viewBox="0 0 24 24" fill="none" xmlns="http://www.w3.org/2000/svg">
<path d="M12 1C5.92487 1 0.999999 5.92487 1 12C1 18.0751 5.92487 23 12 23C18.0751 23 23 18.0751 23 12C23 5.92487 18.0751 1 12 1Z" stroke="#EAB472" stroke-width="1.2"/>
<path d="M11.5208 14.6178L11.4716 14.6653L11.5208 14.7127L11.83 15.0109L11.8758 15.055L11.9215 15.0109L14.9816 12.06L15.0308 12.0126L14.9816 11.9651L11.8944 8.98791L11.8487 8.94385L11.8029 8.98791L11.4937 9.28613L11.4445 9.33356L11.4937 9.38098L13.9333 11.7336H8.34907H8.2832V11.7994V12.2256V12.2915H8.34907H13.9333L11.5208 14.6178Z" fill="#EAB472"/>
</svg>
